<?xml version="1.0" encoding="UTF-8" standalone="no"?>
<svg xmlns="http://www.w3.org/2000/svg" width="1520" height="360" viewBox="0 0 1520 360" fill="none">
  <defs>
    <marker id="arrowhead" markerWidth="42" markerHeight="42" refX="31" refY="21"
            orient="auto" markerUnits="userSpaceOnUse" viewBox="0 0 42 42">
      <path d="M5 5 L36 21 L5 37 Z" fill="#1447E6"/>
    </marker>
  </defs>
  <g aria-label="Simbol alertă retragere">
    <path d="M118 84 A108 108 0 1 1 84 118"
          stroke="#1447E6" stroke-width="27" stroke-linecap="round"
          marker-end="url(#arrowhead)"/>
    <rect x="166.5" y="111" width="27" height="88" rx="13.5" fill="#1447E6"/>
    <circle cx="180" cy="229" r="14" fill="#1447E6"/>
  </g>
  <g aria-label="Retrase.ro">
    <path d="M16.122,0.000 L44.791,0.000 L44.791,58.747 L74.663,58.747 L106.150,0.000 L138.256,0.000 L103.572,63.594 C122.478,71.122 132.344,87.106 132.344,108.831 C132.344,139.322 112.784,160.050 75.934,160.050 L16.122,160.050 L16.122,0.000 Z M44.791,82.500 L44.791,135.988 L71.534,135.988 C93.363,135.988 103.022,125.916 103.022,108.831 C103.022,91.850 93.363,82.500 71.775,82.500 L44.791,82.500 Z M211.406,-2.475 C238.150,-2.475 256.850,10.312 262.659,29.769 L236.981,35.028 C233.200,24.819 223.988,19.456 211.716,19.456 C193.806,19.456 181.638,30.834 180.916,52.216 L264.481,52.216 L264.481,61.016 C264.481,103.125 238.906,121.619 209.584,121.619 C175.209,121.619 153.072,96.250 153.072,59.297 C153.072,21.691 175.209,-2.475 211.406,-2.475 Z M181.019,71.225 C182.291,87.244 192.603,99.688 209.688,99.688 C226.325,99.688 235.675,88.413 237.291,71.225 L181.019,71.225 Z M343.969,120.106 L320.766,120.106 L320.766,148.672 L292.819,148.672 L292.819,120.106 L275.769,120.106 L275.769,98.175 L292.819,98.175 L292.819,31.488 C292.819,10.209 305.607,-1.616 328.604,-1.616 C334.516,-1.616 341.185,-0.859 347.304,0.963 L342.904,22.550 C340.222,21.931 335.272,21.175 332.694,21.175 C324.204,21.175 320.766,25.128 320.766,33.825 L320.766,98.175 L343.969,98.175 L343.969,120.106 Z M366.085,0.000 L394.032,0.000 L394.032,70.675 C394.032,85.938 405.513,96.697 421.085,96.697 C426.035,96.697 431.948,95.941 434.320,95.288 L434.320,120.966 C431.638,121.378 427.204,121.722 424.110,121.722 C410.360,121.722 398.741,113.884 394.445,99.997 L393.173,99.997 L393.173,120.106 L366.085,120.106 L366.085,0.000 Z M486.935,-2.475 C505.635,-2.475 517.013,6.222 522.272,16.534 L523.372,16.534 L523.372,0.000 L550.116,0.000 L550.116,80.231 C550.116,112.269 523.682,121.619 501.132,121.619 C477.069,121.619 457.304,111.409 450.222,90.234 L476.107,84.975 C478.994,92.916 487.279,100.134 501.235,100.134 C514.882,100.134 522.169,93.259 522.169,81.538 L522.169,80.988 C522.169,72.738 513.369,72.394 492.538,70.159 C469.335,67.684 446.785,60.809 446.785,33.722 C446.785,10.106 464.075,-2.475 486.935,-2.475 Z M494.154,18.253 C482.329,18.253 473.838,23.650 473.838,34.066 C473.838,44.997 483.291,49.638 495.872,51.356 C503.057,52.319 518.629,54.244 522.410,57.269 L522.410,43.072 C522.410,29.769 511.341,18.253 494.154,18.253 Z M625.191,-2.475 C655.475,-2.475 676.754,13.200 676.754,35.991 C676.754,52.869 665.925,63.594 643.135,68.441 L622.716,72.738 C610.479,75.419 605.632,79.819 605.632,86.797 C605.632,94.978 614.672,100.753 626.497,100.753 C639.388,100.753 646.263,94.119 649.047,85.731 L673.969,90.681 C669.122,109.244 653.344,121.619 626.154,121.619 C597.382,121.619 577.719,107.319 577.719,85.078 C577.719,67.478 588.788,56.409 611.441,51.459 L631.963,47.059 C642.929,44.688 648.188,40.288 648.188,33.309 C648.188,25.128 639.491,18.906 625.741,18.906 C612.094,18.906 603.707,24.613 600.475,36.541 L574.385,31.591 C578.579,9.763 597.588,-2.475 625.191,-2.475 Z M753.672,-2.475 C780.416,-2.475 799.116,10.312 804.925,29.769 L779.247,35.028 C775.466,24.819 766.253,19.456 753.981,19.456 C736.072,19.456 723.903,30.834 723.181,52.216 L806.747,52.216 L806.747,61.016 C806.747,103.125 781.172,121.619 751.850,121.619 C717.475,121.619 695.338,96.250 695.338,59.297 C695.338,21.691 717.475,-2.475 753.672,-2.475 Z M723.284,71.225 C724.556,87.244 734.869,99.688 751.953,99.688 C768.591,99.688 777.941,88.413 779.556,71.225 L723.284,71.225 Z" fill="#0B1220" transform="translate(365,258) scale(1,-1)"/>
    <path d="M35.028,-1.822 C44.688,-1.822 52.319,5.706 52.319,15.366 C52.319,24.922 44.688,32.450 35.028,32.450 C25.369,32.450 17.841,24.922 17.841,15.366 C17.841,5.706 25.369,-1.822 35.028,-1.822 Z M84.962,0.000 L112.909,0.000 L112.909,70.675 C112.909,85.938 124.390,96.697 139.962,96.697 C144.912,96.697 150.825,95.941 153.196,95.288 L153.196,120.966 C150.515,121.378 146.081,121.722 142.987,121.722 C129.237,121.722 117.618,113.884 113.321,99.997 L112.050,99.997 L112.050,120.106 L84.962,120.106 L84.962,0.000 Z M224.409,-2.475 C259.437,-2.475 281.884,22.447 281.884,59.400 C281.884,96.800 259.437,121.619 224.409,121.619 C189.380,121.619 167.037,96.800 167.037,59.400 C167.037,22.447 189.380,-2.475 224.409,-2.475 Z M224.409,20.213 C204.952,20.213 195.499,37.606 195.499,59.503 C195.499,81.641 204.952,98.931 224.409,98.931 C243.968,98.931 253.524,81.641 253.524,59.503 C253.524,37.606 243.968,20.213 224.409,20.213 Z" fill="#1447E6" transform="translate(1180.85625,258) scale(1,-1)"/>
  </g>
</svg>
